<mxfile host="app.diagrams.net" modified="2024-01-22T22:16:59.307Z" agent="Mozilla/5.0 (Windows NT 10.0; Win64; x64; rv:121.0) Gecko/20100101 Firefox/121.0" etag="Ds0_2rkE60K1ySwz6B3s" version="22.1.21" type="device">
  <diagram name="Page-1" id="vp3HjpGns-U48Wa7OMmH">
    <mxGraphModel dx="756" dy="439" grid="1" gridSize="10" guides="1" tooltips="1" connect="1" arrows="1" fold="1" page="1" pageScale="1" pageWidth="627" pageHeight="360" math="1" shadow="0">
      <root>
        <mxCell id="0" />
        <mxCell id="1" parent="0" />
        <mxCell id="nBsF9HyfLqCcTzJFpMwC-1" value="" style="endArrow=classic;html=1;rounded=0;strokeWidth=1;" edge="1" parent="1">
          <mxGeometry width="50" height="50" relative="1" as="geometry">
            <mxPoint x="110" y="330" as="sourcePoint" />
            <mxPoint x="110" y="10" as="targetPoint" />
          </mxGeometry>
        </mxCell>
        <mxCell id="nBsF9HyfLqCcTzJFpMwC-2" value="" style="endArrow=classic;html=1;rounded=0;strokeWidth=1;" edge="1" parent="1">
          <mxGeometry width="50" height="50" relative="1" as="geometry">
            <mxPoint x="110" y="330" as="sourcePoint" />
            <mxPoint x="620" y="330" as="targetPoint" />
          </mxGeometry>
        </mxCell>
        <mxCell id="nBsF9HyfLqCcTzJFpMwC-4" value="" style="curved=1;endArrow=none;html=1;rounded=0;endFill=0;strokeWidth=2;" edge="1" parent="1">
          <mxGeometry width="50" height="50" relative="1" as="geometry">
            <mxPoint x="150" y="290" as="sourcePoint" />
            <mxPoint x="590" y="130" as="targetPoint" />
            <Array as="points">
              <mxPoint x="160" y="90" />
              <mxPoint x="400" y="160" />
              <mxPoint x="430" y="40" />
              <mxPoint x="570" y="40" />
            </Array>
          </mxGeometry>
        </mxCell>
        <mxCell id="nBsF9HyfLqCcTzJFpMwC-5" value="" style="curved=1;endArrow=none;html=1;rounded=0;endFill=0;strokeColor=#ff0000;strokeWidth=2;" edge="1" parent="1">
          <mxGeometry width="50" height="50" relative="1" as="geometry">
            <mxPoint x="260" y="290" as="sourcePoint" />
            <mxPoint x="520" y="180" as="targetPoint" />
            <Array as="points">
              <mxPoint x="350" y="140" />
              <mxPoint x="490" y="90" />
            </Array>
          </mxGeometry>
        </mxCell>
        <mxCell id="nBsF9HyfLqCcTzJFpMwC-7" value="$$L(\theta)$$" style="text;html=1;strokeColor=none;fillColor=none;align=center;verticalAlign=middle;whiteSpace=wrap;rounded=0;" vertex="1" parent="1">
          <mxGeometry x="140" y="260" width="60" height="30" as="geometry" />
        </mxCell>
        <mxCell id="nBsF9HyfLqCcTzJFpMwC-9" value="$$\textcolor{red}{l(\theta|\theta_n)}$$" style="text;html=1;strokeColor=none;fillColor=none;align=center;verticalAlign=middle;whiteSpace=wrap;rounded=0;" vertex="1" parent="1">
          <mxGeometry x="270" y="260" width="60" height="30" as="geometry" />
        </mxCell>
        <mxCell id="nBsF9HyfLqCcTzJFpMwC-15" value="" style="endArrow=none;html=1;rounded=0;dashed=1;" edge="1" parent="1" source="nBsF9HyfLqCcTzJFpMwC-31">
          <mxGeometry width="50" height="50" relative="1" as="geometry">
            <mxPoint x="390" y="330" as="sourcePoint" />
            <mxPoint x="390" y="130" as="targetPoint" />
          </mxGeometry>
        </mxCell>
        <mxCell id="nBsF9HyfLqCcTzJFpMwC-16" value="" style="endArrow=none;html=1;rounded=0;dashed=1;strokeColor=#FF1C03;strokeWidth=2;dashPattern=1 2;" edge="1" parent="1">
          <mxGeometry width="50" height="50" relative="1" as="geometry">
            <mxPoint x="110" y="130" as="sourcePoint" />
            <mxPoint x="390" y="130" as="targetPoint" />
          </mxGeometry>
        </mxCell>
        <mxCell id="nBsF9HyfLqCcTzJFpMwC-17" value="" style="endArrow=none;html=1;rounded=0;dashed=1;strokeColor=#3399FF;strokeWidth=2;dashPattern=1 2;" edge="1" parent="1">
          <mxGeometry width="50" height="50" relative="1" as="geometry">
            <mxPoint x="110" y="110" as="sourcePoint" />
            <mxPoint x="450" y="110" as="targetPoint" />
          </mxGeometry>
        </mxCell>
        <mxCell id="nBsF9HyfLqCcTzJFpMwC-18" value="" style="endArrow=none;html=1;rounded=0;dashed=1;strokeColor=#3399FF;strokeWidth=2;dashPattern=1 2;" edge="1" parent="1">
          <mxGeometry width="50" height="50" relative="1" as="geometry">
            <mxPoint x="450" y="330" as="sourcePoint" />
            <mxPoint x="450" y="110" as="targetPoint" />
          </mxGeometry>
        </mxCell>
        <mxCell id="nBsF9HyfLqCcTzJFpMwC-19" value="" style="endArrow=none;html=1;rounded=0;dashed=1;strokeColor=#FF8000;strokeWidth=2;dashPattern=1 2;" edge="1" parent="1" source="nBsF9HyfLqCcTzJFpMwC-37">
          <mxGeometry width="50" height="50" relative="1" as="geometry">
            <mxPoint x="450" y="110" as="sourcePoint" />
            <mxPoint x="450" y="50" as="targetPoint" />
          </mxGeometry>
        </mxCell>
        <mxCell id="nBsF9HyfLqCcTzJFpMwC-20" value="" style="endArrow=none;html=1;rounded=0;dashed=1;" edge="1" parent="1" source="nBsF9HyfLqCcTzJFpMwC-39">
          <mxGeometry width="50" height="50" relative="1" as="geometry">
            <mxPoint x="110" y="50" as="sourcePoint" />
            <mxPoint x="450" y="50" as="targetPoint" />
          </mxGeometry>
        </mxCell>
        <mxCell id="nBsF9HyfLqCcTzJFpMwC-21" value="&lt;div&gt;$$\theta_n$$&lt;/div&gt;" style="text;html=1;strokeColor=none;fillColor=none;align=center;verticalAlign=middle;whiteSpace=wrap;rounded=0;" vertex="1" parent="1">
          <mxGeometry x="360" y="330" width="60" height="30" as="geometry" />
        </mxCell>
        <mxCell id="nBsF9HyfLqCcTzJFpMwC-22" value="&lt;div&gt;$$\theta_{n+1}$$&lt;/div&gt;" style="text;html=1;strokeColor=none;fillColor=none;align=center;verticalAlign=middle;whiteSpace=wrap;rounded=0;" vertex="1" parent="1">
          <mxGeometry x="420" y="330" width="60" height="30" as="geometry" />
        </mxCell>
        <mxCell id="nBsF9HyfLqCcTzJFpMwC-24" value="&lt;div&gt;$$\theta$$&lt;/div&gt;" style="text;html=1;strokeColor=none;fillColor=none;align=center;verticalAlign=middle;whiteSpace=wrap;rounded=0;" vertex="1" parent="1">
          <mxGeometry x="590" y="330" width="60" height="30" as="geometry" />
        </mxCell>
        <mxCell id="nBsF9HyfLqCcTzJFpMwC-28" value="$$L(\theta_n) = l(\theta_n|\theta_n)$$" style="text;html=1;strokeColor=none;fillColor=none;align=center;verticalAlign=middle;whiteSpace=wrap;rounded=0;" vertex="1" parent="1">
          <mxGeometry x="35" y="110" width="40" height="40" as="geometry" />
        </mxCell>
        <mxCell id="nBsF9HyfLqCcTzJFpMwC-29" value="$$l(\theta_{n+1}|\theta_n)$$" style="text;html=1;strokeColor=none;fillColor=none;align=center;verticalAlign=middle;whiteSpace=wrap;rounded=0;strokeWidth=1;" vertex="1" parent="1">
          <mxGeometry x="20" y="30" width="70" height="40" as="geometry" />
        </mxCell>
        <mxCell id="nBsF9HyfLqCcTzJFpMwC-30" value="&lt;div&gt;$$L(\theta_{n+1})$$&lt;/div&gt;" style="text;html=1;strokeColor=none;fillColor=none;align=center;verticalAlign=middle;whiteSpace=wrap;rounded=0;" vertex="1" parent="1">
          <mxGeometry x="25" y="90" width="60" height="40" as="geometry" />
        </mxCell>
        <mxCell id="nBsF9HyfLqCcTzJFpMwC-35" value="" style="endArrow=none;html=1;rounded=0;dashed=1;strokeColor=#FF1C03;strokeWidth=2;dashPattern=1 2;" edge="1" parent="1" target="nBsF9HyfLqCcTzJFpMwC-31">
          <mxGeometry width="50" height="50" relative="1" as="geometry">
            <mxPoint x="390" y="330" as="sourcePoint" />
            <mxPoint x="390" y="130" as="targetPoint" />
          </mxGeometry>
        </mxCell>
        <mxCell id="nBsF9HyfLqCcTzJFpMwC-31" value="" style="ellipse;whiteSpace=wrap;html=1;aspect=fixed;strokeWidth=1;fillColor=#FF1C03;strokeColor=default;" vertex="1" parent="1">
          <mxGeometry x="380" y="120" width="20" height="20" as="geometry" />
        </mxCell>
        <mxCell id="nBsF9HyfLqCcTzJFpMwC-38" value="" style="endArrow=none;html=1;rounded=0;dashed=1;" edge="1" parent="1" target="nBsF9HyfLqCcTzJFpMwC-37">
          <mxGeometry width="50" height="50" relative="1" as="geometry">
            <mxPoint x="450" y="110" as="sourcePoint" />
            <mxPoint x="450" y="50" as="targetPoint" />
          </mxGeometry>
        </mxCell>
        <mxCell id="nBsF9HyfLqCcTzJFpMwC-37" value="" style="ellipse;whiteSpace=wrap;html=1;aspect=fixed;strokeWidth=1;fillColor=#3399FF;strokeColor=default;" vertex="1" parent="1">
          <mxGeometry x="440" y="100" width="20" height="20" as="geometry" />
        </mxCell>
        <mxCell id="nBsF9HyfLqCcTzJFpMwC-40" value="" style="endArrow=none;html=1;rounded=0;dashed=1;strokeColor=#FF8000;strokeWidth=2;dashPattern=1 2;" edge="1" parent="1" target="nBsF9HyfLqCcTzJFpMwC-39">
          <mxGeometry width="50" height="50" relative="1" as="geometry">
            <mxPoint x="110" y="50" as="sourcePoint" />
            <mxPoint x="450" y="50" as="targetPoint" />
          </mxGeometry>
        </mxCell>
        <mxCell id="nBsF9HyfLqCcTzJFpMwC-39" value="" style="ellipse;whiteSpace=wrap;html=1;aspect=fixed;strokeWidth=1;fillColor=#FF8000;strokeColor=default;" vertex="1" parent="1">
          <mxGeometry x="440" y="40" width="20" height="20" as="geometry" />
        </mxCell>
      </root>
    </mxGraphModel>
  </diagram>
</mxfile>
